<?xml version="1.0" standalone="no"?>
<!DOCTYPE svg PUBLIC "-//W3C//DTD SVG 20010904//EN"
 "http://www.w3.org/TR/2001/REC-SVG-20010904/DTD/svg10.dtd">
<svg version="1.0" xmlns="http://www.w3.org/2000/svg"
 width="728.000000pt" height="217.000000pt" viewBox="0 0 728.000000 217.000000"
 preserveAspectRatio="xMidYMid meet">
<metadata>
Created by potrace 1.10, written by Peter Selinger 2001-2011
</metadata>
<g transform="translate(0.000000,217.000000) scale(0.100000,-0.100000)"
fill="#fed136" stroke="none">
<path d="M1107 2135 c-9 -19 -23 -35 -31 -35 -26 0 -193 -118 -281 -198 -47
-44 -116 -119 -151 -168 -76 -102 -167 -282 -191 -374 -45 -181 4 -366 122
-456 71 -54 195 -28 297 64 84 76 302 369 296 399 -7 36 -27 19 -101 -85 -100
-140 -246 -296 -306 -326 -60 -31 -119 -40 -151 -23 -61 31 -98 165 -79 289
37 238 236 542 457 697 39 27 39 22 7 -57 -32 -79 -31 -104 3 -144 37 -40 55
-33 72 29 7 26 27 84 46 128 54 133 84 211 84 222 0 14 -55 73 -67 73 -5 0
-17 -16 -26 -35z m52 -26 c11 -18 10 -27 -2 -58 -51 -120 -117 -295 -117 -307
0 -17 -12 -18 -28 -2 -17 17 -15 42 10 119 21 66 21 69 4 88 -12 13 -22 17
-30 11 -63 -50 -158 -132 -192 -166 -39 -41 -134 -159 -134 -169 0 -2 -11 -20
-24 -40 -34 -49 -80 -146 -111 -230 -19 -51 -27 -99 -32 -180 -6 -107 -7 -109
-21 -75 -7 19 -16 66 -18 106 -10 179 127 458 318 645 86 85 269 219 298 219
8 0 24 14 35 30 24 36 26 36 44 9z m-649 -1059 c0 -5 -2 -10 -4 -10 -3 0 -8 5
-11 10 -3 6 -1 10 4 10 6 0 11 -4 11 -10z"/>
<path d="M3917 2093 c-2 -5 -48 -124 -102 -265 -96 -249 -99 -256 -119 -242
-64 44 -160 -31 -249 -196 -36 -67 -77 -185 -77 -224 0 -18 -6 -22 -37 -23
-35 -2 -236 -27 -426 -54 -43 -6 -80 -9 -82 -7 -4 4 27 141 59 263 l22 80 114
28 c63 15 145 28 183 29 l67 2 0 47 c0 70 -10 72 -171 43 -73 -14 -143 -27
-153 -30 -14 -5 -18 -2 -13 9 6 17 52 224 61 279 4 22 13 39 24 42 29 9 212
26 317 31 l100 4 -2 47 c-2 50 -12 63 -46 58 -12 -2 -112 -13 -221 -25 -156
-17 -203 -19 -218 -10 -21 13 -38 7 -38 -14 0 -7 -15 -17 -32 -20 -43 -9 -58
-22 -58 -51 0 -31 25 -54 51 -47 20 6 21 3 16 -23 -23 -107 -177 -746 -182
-753 -3 -5 -19 -12 -35 -16 -38 -8 -60 -30 -60 -59 0 -38 24 -51 74 -39 28 6
50 6 65 -1 19 -8 26 -6 36 8 15 19 155 43 426 71 144 15 155 15 164 0 58 -98
113 -86 210 46 l41 56 12 -61 c8 -45 18 -67 38 -84 l26 -23 32 24 c17 13 54
53 81 90 l50 66 7 -47 c10 -70 36 -119 70 -133 26 -10 32 -9 54 12 14 13 58
71 96 129 39 58 71 106 72 107 0 1 1 -46 1 -104 0 -98 2 -106 24 -124 13 -10
28 -19 34 -19 6 0 32 22 57 48 33 35 71 98 134 221 48 95 86 181 84 190 -6 28
-31 17 -43 -20 -19 -53 -132 -276 -165 -324 -37 -54 -60 -74 -60 -52 0 9 23
107 50 218 62 250 63 271 13 298 -28 14 -30 10 -71 -124 -20 -62 -51 -133 -84
-188 -52 -88 -160 -217 -180 -217 -33 0 48 260 123 396 60 108 83 129 129 119
48 -11 38 32 -16 66 -49 30 -72 20 -147 -61 -66 -71 -119 -164 -156 -273 -22
-63 -101 -184 -155 -236 -31 -30 -36 -32 -42 -17 -25 66 66 399 230 839 37 98
63 183 60 190 -12 20 -47 57 -55 57 -4 0 -10 -3 -12 -7z m33 -72 c0 -15 -12
-56 -26 -92 -76 -185 -173 -476 -223 -669 -36 -137 -39 -143 -51 -118 -10 21
-10 31 -1 42 10 12 65 247 78 336 3 19 9 40 13 45 4 6 49 119 100 252 51 134
97 240 101 237 5 -3 9 -18 9 -33z m-540 -61 c0 -12 -7 -20 -16 -20 -9 0 -94
-7 -188 -16 -232 -21 -223 -15 -258 -179 -43 -198 -42 -193 -27 -211 15 -18
49 -16 182 10 114 23 137 22 137 -8 0 -18 -4 -23 -18 -20 -14 4 -117 -15 -274
-51 -61 -14 -74 -35 -104 -161 -60 -260 -60 -260 40 -249 34 4 70 9 81 12 11
2 105 15 210 29 105 13 195 30 201 37 7 6 19 41 28 76 19 76 85 214 131 273
32 43 115 99 115 79 0 -6 -4 -11 -10 -11 -9 0 -90 -115 -90 -127 0 -4 -6 -14
-14 -22 -24 -29 -93 -204 -105 -271 -19 -98 -18 -96 -44 -72 -18 17 -32 21
-63 18 -21 -2 -68 -7 -104 -11 -256 -26 -417 -50 -435 -65 -7 -6 -43 -13 -79
-15 -51 -3 -66 -1 -66 10 0 16 11 25 42 30 30 6 56 41 63 87 4 21 11 40 16 44
5 3 7 9 5 13 -3 4 -1 23 3 42 9 32 43 178 111 462 40 172 38 207 -12 207 -10
0 -18 7 -18 15 0 8 8 15 18 15 10 0 28 8 42 17 14 10 40 16 64 15 23 -1 104 7
181 17 77 10 166 19 198 20 51 1 57 -1 57 -19z m760 -376 c0 -4 -19 -28 -43
-53 -72 -77 -147 -247 -205 -461 l-9 -35 -7 40 c-4 22 -12 51 -17 64 -7 18 -3
41 22 105 67 175 133 278 209 329 25 17 50 22 50 11z m-460 -38 c0 -2 -11 -46
-25 -98 -13 -51 -29 -124 -36 -163 -9 -56 -21 -84 -58 -138 -57 -85 -128 -154
-144 -138 -17 17 18 169 62 271 45 104 123 233 154 255 20 14 47 20 47 11z
m590 -64 c0 -15 -23 -124 -52 -242 -49 -201 -53 -212 -61 -175 -4 22 -6 53 -4
69 2 16 0 47 -5 68 -7 32 -5 44 11 66 10 15 29 59 41 97 45 138 52 155 61 149
5 -3 9 -17 9 -32z"/>
<path d="M1490 2044 c-95 -43 -210 -146 -251 -226 -43 -85 -35 -226 17 -288
l24 -27 -45 -79 c-86 -150 -117 -277 -95 -388 29 -145 94 -202 224 -194 92 6
141 32 234 121 96 94 162 198 231 370 101 247 114 303 100 407 -26 179 -164
310 -334 317 -47 2 -81 -3 -105 -13z m48 -33 c-25 -10 -61 -29 -80 -42 -68
-48 -161 -145 -183 -192 -28 -60 -41 -38 -14 24 39 88 224 230 299 229 19 -1
15 -5 -22 -19z m207 -45 c55 -33 79 -63 102 -129 31 -90 23 -172 -30 -317 -67
-184 -127 -317 -174 -385 -45 -67 -145 -170 -202 -209 -39 -28 -113 -43 -156
-32 -58 15 -84 160 -50 289 15 60 60 154 102 218 23 35 27 37 56 28 70 -20
169 -2 291 52 51 22 53 33 13 63 l-27 20 -57 -28 c-89 -41 -213 -70 -213 -48
0 4 18 31 40 60 45 59 49 83 20 112 -27 27 -47 16 -102 -60 -23 -32 -46 -60
-49 -60 -15 0 -34 70 -33 125 0 76 24 123 100 199 131 131 259 166 369 102z
m165 -257 c0 -6 -4 -7 -10 -4 -5 3 -10 11 -10 16 0 6 5 7 10 4 6 -3 10 -11 10
-16z m-7 -61 c-5 -50 -60 -225 -74 -233 -5 -4 -9 -13 -9 -22 0 -29 -83 -205
-130 -277 -63 -95 -194 -223 -220 -214 -4 2 24 32 64 68 39 36 82 79 93 95 27
36 118 187 118 194 1 4 24 65 52 136 65 165 96 255 95 278 0 9 3 17 7 17 5 0
6 -19 4 -42z m-453 -27 c0 -10 -13 -35 -30 -56 -36 -46 -45 -72 -30 -90 9 -11
6 -14 -17 -17 -37 -4 -91 -76 -131 -176 -41 -100 -56 -187 -49 -270 6 -61 5
-64 -7 -37 -30 69 -26 253 6 292 6 7 7 13 4 13 -7 0 73 161 85 170 8 6 24 53
21 63 -1 4 4 7 12 7 8 0 29 19 47 43 59 74 89 95 89 58z m230 -107 c0 -6 -66
-32 -121 -48 -27 -8 -49 -11 -49 -5 0 5 8 9 18 10 9 0 42 13 72 28 47 23 80
30 80 15z"/>
<path d="M2291 2035 c-161 -29 -321 -114 -321 -170 0 -7 9 -23 19 -36 18 -22
20 -23 38 -7 24 22 164 91 171 84 10 -11 -210 -772 -239 -826 -4 -8 -36 -27
-71 -41 -59 -24 -63 -28 -66 -60 -2 -24 3 -40 15 -51 17 -15 22 -14 78 9 33
13 72 26 87 27 15 2 33 8 41 14 7 6 61 31 121 56 59 25 137 65 174 90 161 107
332 327 393 505 48 138 0 296 -110 365 -88 56 -184 67 -330 41z m276 -45 c28
-12 61 -33 74 -46 l23 -25 -59 28 c-56 26 -69 28 -183 28 -111 0 -125 -2 -138
-19 -8 -11 -11 -28 -8 -38 10 -33 -65 -317 -167 -635 -62 -193 -52 -215 71
-155 41 20 77 40 80 43 3 3 34 25 70 49 36 24 95 73 131 109 74 75 200 251
225 317 17 45 41 63 28 22 -37 -121 -135 -282 -236 -389 -84 -89 -191 -163
-298 -207 -79 -32 -108 -45 -131 -57 -25 -14 -176 -65 -191 -65 -5 0 -8 11 -8
25 0 14 3 24 8 23 4 0 24 6 44 15 21 10 41 17 47 17 23 0 45 62 166 450 37
119 105 384 105 409 0 59 -28 58 -147 -5 -47 -25 -63 -29 -67 -19 -8 21 59 68
139 99 151 58 323 69 422 26z m7 -60 c94 -36 136 -97 121 -177 -25 -136 -199
-378 -353 -491 -73 -54 -240 -147 -248 -139 -3 3 10 54 29 114 55 169 112 365
153 522 29 114 34 148 25 162 -9 16 -7 19 12 24 85 18 186 12 261 -15z"/>
<path d="M239 1602 c-134 -86 -229 -270 -229 -445 0 -103 17 -149 64 -178 45
-27 79 -24 128 14 90 69 200 239 215 333 10 60 -14 37 -51 -49 -43 -97 -97
-170 -168 -225 -98 -75 -126 -55 -115 82 10 111 20 132 92 177 108 68 204 188
205 256 0 26 -44 63 -74 63 -12 0 -42 -13 -67 -28z m9 -54 c-63 -64 -140 -188
-134 -214 4 -13 0 -27 -9 -34 -18 -15 -41 -92 -50 -168 -11 -86 -29 -52 -22
44 11 148 93 308 199 384 58 42 64 37 16 -12z m102 22 c0 -23 -30 -77 -63
-116 -41 -47 -145 -129 -153 -121 -7 7 56 106 105 166 47 58 111 98 111 71z"/>
</g>
</svg>
