<svg id="Capa_1" enable-background="new 0 0 512 512" height="512" viewBox="0 0 512 512" width="512" xmlns="http://www.w3.org/2000/svg" xmlns:xlink="http://www.w3.org/1999/xlink"><linearGradient id="SVGID_1_" gradientUnits="userSpaceOnUse" x1="8.753" x2="524.202" y1="401.161" y2="103.566"><stop offset="0" stop-color="#dcfdee" stop-opacity="0"/><stop offset=".6288" stop-color="#d2f3e4"/></linearGradient><path d="m418.32 2.5c-55.666-9.521-178.298 12.183-200.004 105.017-14.431 61.722-14.007 112.075-50.427 113.02-21.67.562-32.97-44.31-62.889-48.001-39.047-4.817-66.145 27.695-83.057 57.138-37.205 64.772-25.571 174.918 23.354 228.632 118.488 130.086 259.197-5.952 319.358-112.309 38.585-68.213 125.637-123.352 143.767-200.248 15.177-64.376-18.503-131.003-90.102-143.249z" fill="url(#SVGID_1_)"/><path d="m450.429 110.268h-388.858c-7.139 0-12.926 5.787-12.926 12.926v270.364c0 7.139 5.787 12.926 12.926 12.926h152.283l-4.928 23.947c-1.992 9.681-8.692 17.377-17.412 20.928-4.321 1.76-7.254 5.827-7.254 10.493v.2c0 6.194 5.022 11.216 11.216 11.216h121.05c6.194 0 11.216-5.022 11.216-11.216v-.2c0-4.666-2.933-8.733-7.254-10.493-8.719-3.551-15.419-11.247-17.412-20.928l-4.928-23.947h152.283c7.139 0 12.926-5.787 12.926-12.926v-270.364c-.002-7.139-5.789-12.926-12.928-12.926z" fill="#6583fe" opacity=".2"/><path d="m195.475 453.268h121.05c6.194 0 11.216-5.022 11.216-11.216v-.2c0-4.666-2.933-8.733-7.254-10.493-8.719-3.551-15.419-11.247-17.412-20.928l-6.611-32.121h-80.929l-6.611 32.121c-1.992 9.681-8.692 17.377-17.411 20.928-4.321 1.76-7.254 5.827-7.254 10.493v.2c0 6.195 5.022 11.216 11.216 11.216z" fill="#b7c5ff"/><path d="m301.86 404.488h-91.72l5.4-26.18h80.92z" fill="#9fb0fe"/><path d="m450.429 386.484h-388.858c-7.139 0-12.926-5.787-12.926-12.926v-270.364c0-7.139 5.787-12.926 12.926-12.926h388.859c7.139 0 12.926 5.787 12.926 12.926v270.364c-.001 7.139-5.788 12.926-12.927 12.926z" fill="#fff"/><path d="m172.27 319.69c-26.163.726-41.57-11.864-50.267-23.806-18.965-26.041-19.602-67.673-1.449-94.777 18.034-26.926 49.619-46.185 88.937-54.229 36.739-7.517 77.759-4.723 112.543 7.662 38.427 13.682 70.748 37.633 93.468 69.264 21.875 30.453 33.437 65.738 33.437 102.042 0 3.859 3.227 6.988 7.208 6.988s7.208-3.129 7.208-6.988c0-39.174-12.457-77.221-36.023-110.029-24.419-33.996-59.113-59.721-100.328-74.396-37.258-13.266-81.176-16.262-120.49-8.218-43.094 8.817-77.917 30.229-98.051 60.293-10.229 15.273-15.717 34.947-15.454 55.4.265 20.619 6.379 40.17 17.217 55.051 8.803 12.087 27.258 29.753 59.916 29.751 7.326 0 15.374-.89 24.18-2.931 19.482-4.516 38.394-18.16 47.058-33.951 5.955-10.854 6.958-22.145 2.898-32.652-6.009-15.554-24.656-24.803-43.357-21.518-6.066 1.065-12.313 3.656-17.421 8.066v26.6h3.186c0-5.4 1.638-18.249 16.805-20.913 1.739-.305 3.44-.449 5.094-.449 10.821 0 19.5 6.144 22.194 13.117 2.604 6.741 1.889 13.868-2.126 21.185-6.731 12.269-22.227 23.339-37.683 26.921-1.454.337-2.88.638-4.284.904z" fill="#ffc4df"/><path d="m239.515 117.894c-3.981 0-7.208 3.129-7.208 6.988v103.16h-139.307c-3.981 0-7.208 3.129-7.208 6.988s3.227 6.988 7.208 6.988h79.709v88.074c0 3.981 3.129 7.208 6.988 7.208s6.988-3.227 6.988-7.208v-88.074h45.621v95.282c0 3.859 3.227 6.988 7.208 6.988s7.208-3.129 7.208-6.988v-212.418c.001-3.859-3.226-6.988-7.207-6.988z" fill="#ff7eb8"/><path d="m93 90.268h-31.429c-7.139 0-12.926 5.787-12.926 12.926v270.364c0 7.139 5.787 12.926 12.926 12.926h31.429z" fill="#6583fe"/><path d="m463.355 128.768v-25.574c0-7.139-5.787-12.926-12.926-12.926h-388.858c-7.139 0-12.926 5.787-12.926 12.926v25.574z" fill="#2d58e0"/><path d="m48.645 333.697v39.862c0 7.139 5.787 12.926 12.926 12.926h388.859c7.139 0 12.926-5.787 12.926-12.926v-39.862z" fill="#d2deff"/><path d="m450.43 85.269h-388.86c-9.885 0-17.926 8.042-17.926 17.926v196.502c0 2.761 2.238 5 5 5s5-2.239 5-5v-196.503c0-4.37 3.556-7.926 7.926-7.926h388.86c4.37 0 7.926 3.556 7.926 7.926v225.502h-409.711c-2.762 0-5 2.239-5 5v39.861c0 9.885 8.041 17.926 17.926 17.926h146.149l-3.692 17.938c-1.608 7.819-6.992 14.288-14.399 17.306-.012.005-.024.011-.036.016-.021.009-.042.019-.063.028-6.242 2.587-10.27 8.492-10.27 15.079v.2c0 8.942 7.274 16.216 16.216 16.216h63.19c2.762 0 5-2.239 5-5s-2.238-5-5-5h-63.19c-3.428 0-6.216-2.789-6.216-6.216v-.2c0-2.272 1.309-4.347 3.388-5.493h126.705c2.078 1.146 3.388 3.221 3.388 5.493v.2c0 3.428-2.788 6.216-6.215 6.216h-23.858c-2.762 0-5 2.239-5 5s2.238 5 5 5h23.858c8.94 0 16.215-7.274 16.215-16.216v-.2c0-6.587-4.028-12.493-10.269-15.079-.021-.009-.042-.02-.063-.029-.012-.005-.023-.011-.034-.015-7.408-3.018-12.792-9.487-14.4-17.306l-3.692-17.938h146.147c9.885 0 17.926-8.042 17.926-17.926v-270.363c-.001-9.884-8.042-17.925-17.926-17.925zm-152.252 326.169c1.15 5.587 3.66 10.686 7.207 14.921h-98.77c3.548-4.234 6.057-9.334 7.207-14.921l4.107-19.954h76.141zm160.177-37.879c0 4.37-3.556 7.926-7.926 7.926h-388.859c-4.37 0-7.926-3.556-7.926-7.926v-34.861h404.711z" fill="#2626bc"/><path d="m137.721 448.359c-2.762 0-5-2.239-5-5 0-3.309-2.692-6-6.001-6-2.762 0-5-2.239-5-5s2.238-5 5-5c3.309 0 6.001-2.691 6.001-6 0-2.761 2.238-5 5-5s5 2.239 5 5c0 3.309 2.691 6 5.999 6 2.762 0 5 2.239 5 5s-2.238 5-5 5c-3.308 0-5.999 2.691-5.999 6 0 2.762-2.239 5-5 5z" fill="#01eca5"/><path d="m81.822 469.269c-2.762 0-5-2.239-5-5 0-3.309-2.691-6-6-6-2.762 0-5-2.239-5-5s2.238-5 5-5c3.309 0 6-2.691 6-6 0-2.761 2.238-5 5-5s5 2.239 5 5c0 3.309 2.691 6 6 6 2.762 0 5 2.239 5 5s-2.238 5-5 5c-3.309 0-6 2.691-6 6 0 2.761-2.238 5-5 5z" fill="#6583fe"/><path d="m198.667 64.732c-1.279 0-2.56-.488-3.535-1.464-1.953-1.953-1.953-5.119 0-7.071l10-10c1.951-1.952 5.119-1.952 7.07 0 1.953 1.953 1.953 5.119 0 7.071l-10 10c-.975.976-2.256 1.464-3.535 1.464z" fill="#6583fe"/><path d="m382.086 448.555c-1.279 0-2.56-.488-3.535-1.464-1.953-1.953-1.953-5.119 0-7.071l10-10c1.951-1.952 5.119-1.952 7.07 0 1.953 1.953 1.953 5.119 0 7.071l-10 10c-.975.976-2.256 1.464-3.535 1.464z" fill="#6583fe"/><path d="m387.086 202.493h-53.285c-2.761 0-5-2.239-5-5v-36.573c0-2.761 2.239-5 5-5h53.285c2.761 0 5 2.239 5 5v36.573c0 2.761-2.239 5-5 5z" fill="#9fb0fe"/><path d="m392.086 172.993h-63.285v-12.073c0-2.761 2.239-5 5-5h53.285c2.761 0 5 2.239 5 5z" fill="#4369fd"/><path d="m387.086 294.066h-53.285c-2.761 0-5-2.239-5-5v-81.573c0-2.761 2.239-5 5-5h53.285c2.761 0 5 2.239 5 5v81.573c0 2.762-2.239 5-5 5z" fill="#9fb0fe"/><path d="m392.086 219.566h-63.285v-12.073c0-2.761 2.239-5 5-5h53.285c2.761 0 5 2.239 5 5z" fill="#4369fd"/><path d="m267.087 246.285 5.233 15.699c.804 2.411 3.864 3.133 5.661 1.336l10.466-10.466c1.797-1.797 1.075-4.857-1.336-5.661l-15.699-5.233c-2.673-.89-5.216 1.653-4.325 4.325z" fill="#2d58e0"/><g fill="#02ffb3"><path d="m136.467 218.484c-2.761 0-5-2.239-5-5v-.115c0-2.761 2.239-5 5-5s5 2.239 5 5v.115c0 2.761-2.239 5-5 5z"/><path d="m151.067 218.484c-2.761 0-5-2.239-5-5v-.115c0-2.761 2.239-5 5-5s5 2.239 5 5v.115c0 2.761-2.239 5-5 5z"/><path d="m257.001 162.156c0-2.761 2.239-5 5-5h.115c2.761 0 5 2.239 5 5s-2.239 5-5 5h-.115c-2.761 0-5-2.239-5-5z"/><path d="m257.001 176.756c0-2.761 2.239-5 5-5h.115c2.761 0 5 2.239 5 5s-2.239 5-5 5h-.115c-2.761 0-5-2.239-5-5z"/></g><path d="m267.116 65.732c-2.762 0-5-2.239-5-5 0-3.309-2.691-6-6-6-2.762 0-5-2.239-5-5s2.238-5 5-5c3.309 0 6-2.692 6-6 0-2.761 2.238-5 5-5s5 2.239 5 5c0 3.309 2.691 6 6 6 2.762 0 5 2.239 5 5s-2.238 5-5 5c-3.309 0-6 2.691-6 6 0 2.761-2.238 5-5 5z" fill="#ff7eb8"/></svg>