<?xml version="1.0" standalone="no"?>
<!DOCTYPE svg PUBLIC "-//W3C//DTD SVG 20010904//EN"
 "http://www.w3.org/TR/2001/REC-SVG-20010904/DTD/svg10.dtd">
<svg version="1.0" xmlns="http://www.w3.org/2000/svg"
 width="300.000000pt" height="89.000000pt" viewBox="0 0 300.000000 89.000000"
 preserveAspectRatio="xMidYMid meet">
<metadata>
Created by potrace 1.10, written by Peter Selinger 2001-2011
</metadata>
<g transform="translate(0.000000,89.000000) scale(0.100000,-0.100000)"
fill="#fed136" stroke="none">
<path d="M725 800 c-3 -11 -11 -20 -16 -20 -15 0 -90 -51 -152 -104 -70 -59
-134 -146 -183 -250 -32 -67 -37 -86 -37 -154 -1 -88 20 -141 74 -187 28 -23
39 -26 73 -21 44 7 93 40 141 95 49 55 135 175 135 189 0 25 -17 11 -58 -47
-124 -176 -241 -253 -287 -188 -60 85 -31 233 77 397 17 25 65 77 107 117 52
49 70 72 58 73 -10 0 -53 -35 -95 -77 -78 -79 -138 -170 -180 -272 -20 -50
-23 -45 -9 15 8 33 63 136 86 163 12 13 21 28 21 32 0 21 183 178 207 179 7 0
21 10 33 22 11 12 22 19 25 16 6 -6 -16 -78 -41 -133 -13 -30 -19 -36 -22 -21
-2 10 1 22 8 26 8 5 9 13 3 24 -8 14 -14 8 -33 -33 -22 -48 -22 -51 -6 -76 19
-29 34 -32 43 -7 3 9 24 63 46 120 38 99 39 103 22 122 -23 25 -32 25 -40 0z"/>
<path d="M2331 651 c-27 -71 -53 -141 -57 -155 -6 -27 -18 -33 -29 -16 -20 33
-100 -36 -145 -125 -34 -67 -52 -155 -31 -155 6 0 11 -5 11 -12 0 -6 -11 -1
-25 12 l-24 23 -123 -17 c-68 -10 -137 -20 -155 -23 -31 -5 -32 -5 -22 23 5
16 17 62 27 103 l17 74 45 13 c25 8 73 15 107 16 l63 3 0 32 c0 17 -4 34 -8
37 -5 3 -48 -4 -97 -15 -49 -10 -90 -18 -91 -16 -1 1 8 45 20 97 22 94 22 94
56 102 19 4 77 9 127 10 85 3 93 5 93 23 0 47 -11 50 -117 35 -54 -7 -119 -14
-145 -14 -27 0 -48 -3 -48 -8 0 -4 -6 -8 -14 -8 -8 0 -22 -7 -31 -16 -12 -13
-13 -19 -4 -31 7 -7 18 -12 26 -9 7 3 13 2 13 -2 0 -4 -24 -108 -53 -231 l-53
-223 -33 -14 c-22 -9 -31 -19 -29 -31 3 -14 14 -18 53 -19 28 -1 55 2 61 7 9
7 169 30 296 42 40 4 48 1 58 -19 23 -42 40 -38 96 21 l53 56 -1 -36 c-1 -40
22 -71 46 -62 9 4 28 24 43 46 31 45 43 51 43 20 0 -23 18 -61 33 -71 18 -11
42 9 83 69 21 32 41 62 45 67 4 4 7 -17 7 -48 -1 -94 33 -112 83 -44 31 43
119 212 119 229 0 29 -24 -3 -69 -93 -50 -102 -85 -157 -94 -148 -3 3 11 66
30 140 35 134 35 165 3 165 -7 0 -24 -34 -39 -75 -36 -100 -137 -247 -157
-227 -10 10 25 126 61 197 41 81 68 112 90 104 24 -10 17 14 -9 31 -19 13 -29
14 -45 6 -44 -24 -117 -138 -135 -213 -3 -14 -27 -52 -52 -83 -61 -74 -74 -64
-49 42 17 75 103 346 130 408 35 81 37 92 23 114 -7 12 -16 21 -19 21 -4 0
-30 -58 -58 -129z m-498 13 c-2 -7 -10 -15 -17 -17 -7 -3 -16 -29 -20 -58 -5
-33 -11 -48 -17 -42 -6 6 -5 21 2 41 8 24 8 36 0 46 -18 22 -2 46 29 44 17 -1
26 -7 23 -14z m-41 -226 c13 -11 25 -15 32 -9 15 11 92 23 80 11 -5 -4 -22
-11 -39 -14 -97 -18 -99 -19 -118 -71 -13 -39 -16 -42 -11 -15 3 19 8 46 10
60 2 14 7 48 11 75 7 46 8 48 11 15 2 -19 13 -42 24 -52z m495 10 c-3 -8 -6
-5 -6 6 -1 11 2 17 5 13 3 -3 4 -12 1 -19z m-32 -10 c-4 -13 -15 -61 -25 -106
-18 -83 -25 -95 -84 -159 -41 -45 -50 -42 -42 16 12 88 108 271 142 271 12 0
15 -6 9 -22z m207 -25 c-25 -35 -58 -109 -67 -147 -3 -16 -13 -39 -21 -50 -12
-17 -14 -18 -14 -3 0 38 58 170 95 214 20 24 26 12 7 -14z m-282 7 c0 -5 -5
-10 -11 -10 -5 0 -7 5 -4 10 3 6 8 10 11 10 2 0 4 -4 4 -10z m-20 -30 c0 -5
-5 -10 -11 -10 -5 0 -7 5 -4 10 3 6 8 10 11 10 2 0 4 -4 4 -10z m423 -5 c-3
-9 -8 -14 -10 -11 -3 3 -2 9 2 15 9 16 15 13 8 -4z m-455 -47 c-7 -13 -12 -27
-13 -32 0 -5 -6 -11 -13 -14 -9 -3 -8 7 5 32 9 20 21 36 25 36 5 0 3 -10 -4
-22z m436 -46 c-6 -55 -8 -60 -22 -45 -15 14 -14 18 1 45 9 16 17 39 17 50 0
12 3 19 6 16 3 -3 2 -33 -2 -66z m-849 -63 c-5 -39 -4 -54 6 -60 12 -8 11 -11
-1 -19 -20 -13 -50 -13 -50 0 0 6 5 10 10 10 6 0 9 3 8 8 -2 7 8 58 18 95 11
36 16 15 9 -34z m372 19 c-3 -8 -6 -5 -6 6 -1 11 2 17 5 13 3 -3 4 -12 1 -19z"/>
<path d="M944 741 c-55 -25 -124 -88 -141 -128 -18 -45 -16 -112 5 -152 l18
-34 -38 -72 c-65 -125 -61 -243 12 -293 65 -44 142 -19 231 74 58 62 90 121
145 269 36 95 42 150 22 206 -38 111 -161 174 -254 130z m176 -56 c65 -63 64
-143 -4 -313 -52 -129 -83 -178 -154 -244 -51 -48 -82 -62 -123 -56 -61 8 -64
147 -5 253 33 59 34 60 72 57 40 -2 169 31 178 47 3 5 -1 14 -9 21 -12 10 -26
9 -71 -9 -54 -20 -104 -28 -104 -15 0 3 11 19 25 36 20 23 23 33 15 49 -16 28
-32 23 -65 -22 -27 -36 -31 -38 -42 -23 -44 60 23 180 134 240 44 23 117 13
153 -21z m-214 -210 c-8 -8 -18 -15 -22 -15 -3 0 -1 7 6 15 7 8 17 15 22 15 5
0 3 -7 -6 -15z m-26 -43 c0 -5 -10 -19 -22 -32 -13 -13 -31 -35 -40 -49 -12
-18 -18 -21 -18 -10 0 9 9 24 19 33 11 10 22 28 25 42 6 22 36 35 36 16z m-83
-134 c-3 -8 -6 -5 -6 6 -1 11 2 17 5 13 3 -3 4 -12 1 -19z"/>
<path d="M1395 736 c-55 -14 -110 -40 -137 -64 -34 -29 -15 -78 19 -50 9 7 34
22 57 34 25 13 40 27 38 36 -2 13 36 33 45 24 4 -4 -16 -104 -24 -126 -3 -8
-8 -26 -10 -40 -2 -14 -8 -29 -14 -35 -5 -5 -9 -19 -9 -31 0 -28 -10 -54 -21
-54 -6 0 5 50 25 115 2 6 5 15 6 20 1 6 8 29 15 53 14 46 1 70 -15 27 -6 -14
-10 -29 -10 -33 0 -6 -34 -122 -106 -357 -23 -77 -26 -82 -61 -94 -44 -16 -52
-26 -46 -52 6 -23 20 -24 75 -3 141 52 235 102 294 156 64 59 148 180 164 236
26 96 -5 190 -75 226 -48 25 -140 30 -210 12z m182 -52 c26 -8 56 -25 66 -36
20 -24 22 -75 5 -115 -26 -59 -109 -173 -160 -217 -83 -73 -222 -137 -181 -84
5 7 33 94 62 193 28 99 56 193 61 209 6 19 6 34 -1 42 -8 9 -3 14 18 17 57 8
83 7 130 -9z m-246 -307 c-8 -8 -11 -5 -11 9 0 27 14 41 18 19 2 -9 -1 -22 -7
-28z m222 -44 c-43 -51 -164 -143 -186 -143 -4 0 -37 -14 -72 -30 -35 -17 -70
-30 -78 -30 -7 0 -17 -4 -22 -8 -6 -5 9 11 31 33 31 31 44 54 49 86 4 23 13
59 21 79 12 33 13 33 13 8 1 -15 -3 -29 -8 -32 -14 -9 -21 -79 -9 -93 6 -7 18
-13 28 -13 34 0 159 83 217 144 32 34 60 60 62 59 2 -2 -18 -29 -46 -60z"/>
<path d="M185 459 c-65 -60 -98 -136 -99 -227 -1 -69 1 -75 27 -98 15 -13 35
-24 44 -24 46 0 169 173 160 224 -3 19 -5 18 -16 -9 -30 -72 -45 -96 -88 -140
-62 -63 -88 -60 -87 10 0 76 9 98 50 120 43 23 112 99 120 132 4 13 1 30 -6
38 -22 26 -58 17 -105 -26z m95 6 c0 -29 -54 -90 -117 -134 -27 -18 -33 -20
-33 -7 0 9 7 16 15 16 8 0 15 3 15 8 0 16 91 122 105 122 8 0 15 -2 15 -5z"/>
</g>
</svg>
